<?xml version="1.0" encoding="utf-8"?>
<!-- Generator: Adobe Illustrator 25.4.1, SVG Export Plug-In . SVG Version: 6.00 Build 0)  -->
<svg version="1.1" id="Ebene_1" xmlns="http://www.w3.org/2000/svg" xmlns:xlink="http://www.w3.org/1999/xlink" x="0px" y="0px"
	 viewBox="0 0 1000 1000" style="enable-background:new 0 0 1000 1000;" xml:space="preserve">
<style type="text/css">
	.st0{fill:#2092D1;}
</style>
<g>
	<path class="st0" d="M339.7,646.6c2.3-17.1,5.7-177.9,6.8-230.4c0-17.1,9.1-46.8,46.8-52.5c21.7-3.4,52.5,10.3,81,39.9
		C546.2,477.8,655.7,658,688.8,658c47.9,0,131.2-302.3,151.7-439.2C761.8,127.6,645.4,70.5,515.4,70.5
		C285,70.5,97.9,251.9,86.5,478.9C221.1,543.9,337.5,663.7,339.7,646.6z"/>
	<path class="st0" d="M767.5,699.1c-29.7,39.9-55.9,74.1-85.6,67.3c-35.4-8-125.5-142.6-154-183.7c-28.5-41.1-68.4-102.7-93.5-101.5
		c-11.4,1.1-20.5,12.5-22.8,31.9c-9.1,73-10.3,142.6-14.8,206.5c-1.1,21.7-24,35.4-42.2,35.4c-37.6,0-45.6-22.8-92.4-77.6
		C145.8,542.8,93.3,525.7,84.2,523.4L52.3,928.3l465.4,1.1c237.3,0,430-192.8,430-430c0-36.5-4.6-71.9-12.5-104.9
		C912.4,448.1,828,616.9,767.5,699.1z"/>
</g>
</svg>
